<mxfile host="app.diagrams.net" modified="2020-11-12T04:05:20.996Z" agent="5.0 (Macintosh; Intel Mac OS X 10_15_7) AppleWebKit/537.36 (KHTML, like Gecko) Chrome/86.0.4240.111 Safari/537.36" etag="ShEZLALc4nQdL-0XmPta" version="13.9.6" type="github">
  <diagram id="UNEN4vckEBG-DJC_pmxb" name="Page-1">
    <mxGraphModel dx="1602" dy="1468" grid="0" gridSize="10" guides="1" tooltips="1" connect="1" arrows="1" fold="1" page="0" pageScale="1" pageWidth="827" pageHeight="1169" math="0" shadow="0">
      <root>
        <mxCell id="0" />
        <mxCell id="1" parent="0" />
        <mxCell id="2JZlqwN-lR3yLo2RLOQG-14" value="" style="shape=table;html=1;whiteSpace=wrap;startSize=0;container=1;collapsible=0;childLayout=tableLayout;" vertex="1" parent="1">
          <mxGeometry x="-221" y="-279" width="1271" height="741.13" as="geometry" />
        </mxCell>
        <mxCell id="2JZlqwN-lR3yLo2RLOQG-15" value="" style="shape=partialRectangle;html=1;whiteSpace=wrap;collapsible=0;dropTarget=0;pointerEvents=0;fillColor=none;top=0;left=0;bottom=0;right=0;points=[[0,0.5],[1,0.5]];portConstraint=eastwest;" vertex="1" parent="2JZlqwN-lR3yLo2RLOQG-14">
          <mxGeometry width="1271" height="66" as="geometry" />
        </mxCell>
        <mxCell id="2JZlqwN-lR3yLo2RLOQG-16" value="&lt;b&gt;&lt;font style=&quot;font-size: 16px&quot;&gt;CONSTRAINT CATEGORY&lt;/font&gt;&lt;/b&gt;" style="shape=partialRectangle;html=1;whiteSpace=wrap;connectable=0;fillColor=#ffe6cc;top=0;left=0;bottom=0;right=0;overflow=hidden;strokeColor=#d79b00;" vertex="1" parent="2JZlqwN-lR3yLo2RLOQG-15">
          <mxGeometry width="310" height="66" as="geometry" />
        </mxCell>
        <mxCell id="2JZlqwN-lR3yLo2RLOQG-17" value="&lt;b&gt;&lt;font style=&quot;font-size: 16px&quot;&gt;IMPLEMENTATION CONSTRAINT&lt;/font&gt;&lt;/b&gt;" style="shape=partialRectangle;html=1;whiteSpace=wrap;connectable=0;fillColor=#ffe6cc;top=0;left=0;bottom=0;right=0;overflow=hidden;strokeColor=#d79b00;" vertex="1" parent="2JZlqwN-lR3yLo2RLOQG-15">
          <mxGeometry x="310" width="538" height="66" as="geometry" />
        </mxCell>
        <mxCell id="2JZlqwN-lR3yLo2RLOQG-18" value="&lt;b&gt;&lt;font style=&quot;font-size: 16px&quot;&gt;SOLUTION&lt;/font&gt;&lt;/b&gt;" style="shape=partialRectangle;html=1;whiteSpace=wrap;connectable=0;fillColor=#ffe6cc;top=0;left=0;bottom=0;right=0;overflow=hidden;strokeColor=#d79b00;" vertex="1" parent="2JZlqwN-lR3yLo2RLOQG-15">
          <mxGeometry x="848" width="423" height="66" as="geometry" />
        </mxCell>
        <mxCell id="2JZlqwN-lR3yLo2RLOQG-19" value="" style="shape=partialRectangle;html=1;whiteSpace=wrap;collapsible=0;dropTarget=0;pointerEvents=0;fillColor=none;top=0;left=0;bottom=0;right=0;points=[[0,0.5],[1,0.5]];portConstraint=eastwest;" vertex="1" parent="2JZlqwN-lR3yLo2RLOQG-14">
          <mxGeometry y="66" width="1271" height="115" as="geometry" />
        </mxCell>
        <mxCell id="2JZlqwN-lR3yLo2RLOQG-20" value="&lt;font style=&quot;font-size: 16px&quot;&gt;&lt;b&gt;HARDWARE AND &lt;br&gt;SOFTWARE &lt;br&gt;PERFORMANCE&lt;/b&gt;&lt;/font&gt;" style="shape=partialRectangle;html=1;whiteSpace=wrap;connectable=0;fillColor=none;top=0;left=0;bottom=0;right=0;overflow=hidden;align=center;" vertex="1" parent="2JZlqwN-lR3yLo2RLOQG-19">
          <mxGeometry width="310" height="115" as="geometry" />
        </mxCell>
        <mxCell id="2JZlqwN-lR3yLo2RLOQG-21" value="SOFTWARE: THE BROWSER MAY BE INCOMPATIBLE AND MAKE THE APP UNSUABLE&amp;nbsp;" style="shape=partialRectangle;html=1;whiteSpace=wrap;connectable=0;fillColor=none;top=0;left=0;bottom=0;right=0;overflow=hidden;" vertex="1" parent="2JZlqwN-lR3yLo2RLOQG-19">
          <mxGeometry x="310" width="538" height="115" as="geometry" />
        </mxCell>
        <mxCell id="2JZlqwN-lR3yLo2RLOQG-22" value="PROVIDE HARDWARE WITH PRE-INSTALLED SOFTWARE TO CUSTOMERS OT PROVIDE A SPECIFICATION OF COMPATIBLE CONFIGURATIONS" style="shape=partialRectangle;html=1;whiteSpace=wrap;connectable=0;fillColor=none;top=0;left=0;bottom=0;right=0;overflow=hidden;" vertex="1" parent="2JZlqwN-lR3yLo2RLOQG-19">
          <mxGeometry x="848" width="423" height="115" as="geometry" />
        </mxCell>
        <mxCell id="2JZlqwN-lR3yLo2RLOQG-23" value="" style="shape=partialRectangle;html=1;whiteSpace=wrap;collapsible=0;dropTarget=0;pointerEvents=0;fillColor=none;top=0;left=0;bottom=0;right=0;points=[[0,0.5],[1,0.5]];portConstraint=eastwest;" vertex="1" parent="2JZlqwN-lR3yLo2RLOQG-14">
          <mxGeometry y="181" width="1271" height="112" as="geometry" />
        </mxCell>
        <mxCell id="2JZlqwN-lR3yLo2RLOQG-24" value="&lt;span style=&quot;font-size: 16px&quot;&gt;&lt;b&gt;PERFORMANCE REQUIREMENTS&lt;/b&gt;&lt;/span&gt;" style="shape=partialRectangle;html=1;whiteSpace=wrap;connectable=0;fillColor=none;top=0;left=0;bottom=0;right=0;overflow=hidden;" vertex="1" parent="2JZlqwN-lR3yLo2RLOQG-23">
          <mxGeometry width="310" height="112" as="geometry" />
        </mxCell>
        <mxCell id="2JZlqwN-lR3yLo2RLOQG-25" value="SCRIPTING LANGUAGES CAN BE QUITE RESOURCE HUNGRY. THE APP COULD DEMAND HGH RESOURCES TO OPERATE. THIS IS A PROBLEM BECAUSE THE APP WOULD RUN LAG AND BE INEFFICIENT." style="shape=partialRectangle;html=1;whiteSpace=wrap;connectable=0;fillColor=none;top=0;left=0;bottom=0;right=0;overflow=hidden;" vertex="1" parent="2JZlqwN-lR3yLo2RLOQG-23">
          <mxGeometry x="310" width="538" height="112" as="geometry" />
        </mxCell>
        <mxCell id="2JZlqwN-lR3yLo2RLOQG-26" value="&lt;span&gt;THE APP DOES NOT MAKE AUTOMATIC CALLS (RELOAD) AND ONLY SENDS OR REQUESTS DATA WHEN A COMMAND IS EXECUTED; THUS BEING DESIGNED FOR A SMALL TEAM AND USING AN EFFICIENT LANGUAGE - THIS IS UNLIKELY TO HAVE HIGH PERFORMANCE DEMANDS&lt;/span&gt;" style="shape=partialRectangle;html=1;whiteSpace=wrap;connectable=0;fillColor=none;top=0;left=0;bottom=0;right=0;overflow=hidden;" vertex="1" parent="2JZlqwN-lR3yLo2RLOQG-23">
          <mxGeometry x="848" width="423" height="112" as="geometry" />
        </mxCell>
        <mxCell id="2JZlqwN-lR3yLo2RLOQG-31" value="" style="shape=partialRectangle;html=1;whiteSpace=wrap;collapsible=0;dropTarget=0;pointerEvents=0;fillColor=none;top=0;left=0;bottom=0;right=0;points=[[0,0.5],[1,0.5]];portConstraint=eastwest;" vertex="1" parent="2JZlqwN-lR3yLo2RLOQG-14">
          <mxGeometry y="293" width="1271" height="112" as="geometry" />
        </mxCell>
        <mxCell id="2JZlqwN-lR3yLo2RLOQG-32" value="&lt;span style=&quot;font-size: 16px&quot;&gt;&lt;b&gt;PERSISTENCE STORAGE &amp;amp; TRANSACTIONS&lt;/b&gt;&lt;/span&gt;" style="shape=partialRectangle;html=1;whiteSpace=wrap;connectable=0;fillColor=none;top=0;left=0;bottom=0;right=0;overflow=hidden;" vertex="1" parent="2JZlqwN-lR3yLo2RLOQG-31">
          <mxGeometry width="310" height="112" as="geometry" />
        </mxCell>
        <mxCell id="2JZlqwN-lR3yLo2RLOQG-33" value="DATABASES CAN PULL LOTS OF DATA (VIA UPDATES &amp;amp; NEW INPUTS); THIS CAN CONSUME RESOURCES ON THE PERSISTENT STORAGE LAYER WHICH IS AN ISSUE BECAUSE IT CAUSES LAG AND INCREASES THE REQUIREMENT FOR HARDWARE RESOURCES THUS INCREASES RUNNING COSTS DUE TO INCREASED HARDWARE REQUIREMENTS." style="shape=partialRectangle;html=1;whiteSpace=wrap;connectable=0;fillColor=none;top=0;left=0;bottom=0;right=0;overflow=hidden;" vertex="1" parent="2JZlqwN-lR3yLo2RLOQG-31">
          <mxGeometry x="310" width="538" height="112" as="geometry" />
        </mxCell>
        <mxCell id="2JZlqwN-lR3yLo2RLOQG-34" value="" style="shape=partialRectangle;html=1;whiteSpace=wrap;connectable=0;fillColor=none;top=0;left=0;bottom=0;right=0;overflow=hidden;" vertex="1" parent="2JZlqwN-lR3yLo2RLOQG-31">
          <mxGeometry x="848" width="423" height="112" as="geometry" />
        </mxCell>
        <mxCell id="2JZlqwN-lR3yLo2RLOQG-35" value="" style="shape=partialRectangle;html=1;whiteSpace=wrap;collapsible=0;dropTarget=0;pointerEvents=0;fillColor=none;top=0;left=0;bottom=0;right=0;points=[[0,0.5],[1,0.5]];portConstraint=eastwest;" vertex="1" parent="2JZlqwN-lR3yLo2RLOQG-14">
          <mxGeometry y="405" width="1271" height="112" as="geometry" />
        </mxCell>
        <mxCell id="2JZlqwN-lR3yLo2RLOQG-36" value="&lt;span style=&quot;font-size: 16px&quot;&gt;&lt;b&gt;USABILITY&lt;/b&gt;&lt;/span&gt;" style="shape=partialRectangle;html=1;whiteSpace=wrap;connectable=0;fillColor=none;top=0;left=0;bottom=0;right=0;overflow=hidden;" vertex="1" parent="2JZlqwN-lR3yLo2RLOQG-35">
          <mxGeometry width="310" height="112" as="geometry" />
        </mxCell>
        <mxCell id="2JZlqwN-lR3yLo2RLOQG-37" value="&lt;ol&gt;&lt;li&gt;DESIGN FOR ACCESSIBILITY PRINCIPLES NOT CONSIDERED WHICH MAY LIMIT THE MARKET FOR THE PRODUCT AND CREATE DISCRIMINATION AMONGST USERS&lt;/li&gt;&lt;/ol&gt;" style="shape=partialRectangle;html=1;whiteSpace=wrap;connectable=0;fillColor=none;top=0;left=0;bottom=0;right=0;overflow=hidden;align=left;" vertex="1" parent="2JZlqwN-lR3yLo2RLOQG-35">
          <mxGeometry x="310" width="538" height="112" as="geometry" />
        </mxCell>
        <mxCell id="2JZlqwN-lR3yLo2RLOQG-38" value="&lt;a href=&quot;https://www.w3.org/WAI/test-evaluate/preliminary/&quot;&gt;CONSIDER IMPLEMENTING ACCESSIBILITY &lt;br&gt;DESIGN METHODOLOGIES&lt;/a&gt;&lt;br&gt;&lt;br&gt;&lt;a href=&quot;https://www.w3.org/WAI/tips/&quot;&gt;ALSO LOOK AT THIS TIPS PAGE FOR UPDATE SUGGESTIONS&lt;/a&gt;" style="shape=partialRectangle;html=1;whiteSpace=wrap;connectable=0;fillColor=none;top=0;left=0;bottom=0;right=0;overflow=hidden;" vertex="1" parent="2JZlqwN-lR3yLo2RLOQG-35">
          <mxGeometry x="848" width="423" height="112" as="geometry" />
        </mxCell>
        <mxCell id="2JZlqwN-lR3yLo2RLOQG-39" value="" style="shape=partialRectangle;html=1;whiteSpace=wrap;collapsible=0;dropTarget=0;pointerEvents=0;fillColor=none;top=0;left=0;bottom=0;right=0;points=[[0,0.5],[1,0.5]];portConstraint=eastwest;" vertex="1" parent="2JZlqwN-lR3yLo2RLOQG-14">
          <mxGeometry y="517" width="1271" height="112" as="geometry" />
        </mxCell>
        <mxCell id="2JZlqwN-lR3yLo2RLOQG-40" value="&lt;span style=&quot;font-size: 16px&quot;&gt;&lt;b&gt;BUDGETS&lt;/b&gt;&lt;/span&gt;" style="shape=partialRectangle;html=1;whiteSpace=wrap;connectable=0;fillColor=none;top=0;left=0;bottom=0;right=0;overflow=hidden;" vertex="1" parent="2JZlqwN-lR3yLo2RLOQG-39">
          <mxGeometry width="310" height="112" as="geometry" />
        </mxCell>
        <mxCell id="2JZlqwN-lR3yLo2RLOQG-41" value="" style="shape=partialRectangle;html=1;whiteSpace=wrap;connectable=0;fillColor=none;top=0;left=0;bottom=0;right=0;overflow=hidden;" vertex="1" parent="2JZlqwN-lR3yLo2RLOQG-39">
          <mxGeometry x="310" width="538" height="112" as="geometry" />
        </mxCell>
        <mxCell id="2JZlqwN-lR3yLo2RLOQG-42" value="" style="shape=partialRectangle;html=1;whiteSpace=wrap;connectable=0;fillColor=none;top=0;left=0;bottom=0;right=0;overflow=hidden;" vertex="1" parent="2JZlqwN-lR3yLo2RLOQG-39">
          <mxGeometry x="848" width="423" height="112" as="geometry" />
        </mxCell>
        <mxCell id="2JZlqwN-lR3yLo2RLOQG-43" value="" style="shape=partialRectangle;html=1;whiteSpace=wrap;collapsible=0;dropTarget=0;pointerEvents=0;fillColor=none;top=0;left=0;bottom=0;right=0;points=[[0,0.5],[1,0.5]];portConstraint=eastwest;" vertex="1" parent="2JZlqwN-lR3yLo2RLOQG-14">
          <mxGeometry y="629" width="1271" height="112" as="geometry" />
        </mxCell>
        <mxCell id="2JZlqwN-lR3yLo2RLOQG-44" value="&lt;span style=&quot;font-size: 16px&quot;&gt;&lt;b&gt;TIME LIMITATIONS&lt;/b&gt;&lt;/span&gt;" style="shape=partialRectangle;html=1;whiteSpace=wrap;connectable=0;fillColor=none;top=0;left=0;bottom=0;right=0;overflow=hidden;" vertex="1" parent="2JZlqwN-lR3yLo2RLOQG-43">
          <mxGeometry width="310" height="112" as="geometry" />
        </mxCell>
        <mxCell id="2JZlqwN-lR3yLo2RLOQG-45" value="1. THE PROJECT HAS TIGHT TIME CONSTRAINTS TO COMPLETE THE FULL SPECIFICATION REQUIREMENTS( DOCUMENTATION AND THE CODE). THIS MAY MEAN SOME SPECIFICATION ATTRIBUTES ARE NOT ADDRESSED.&amp;nbsp;" style="shape=partialRectangle;html=1;whiteSpace=wrap;connectable=0;fillColor=none;top=0;left=0;bottom=0;right=0;overflow=hidden;align=left;" vertex="1" parent="2JZlqwN-lR3yLo2RLOQG-43">
          <mxGeometry x="310" width="538" height="112" as="geometry" />
        </mxCell>
        <mxCell id="2JZlqwN-lR3yLo2RLOQG-46" value="I ASPIRE TO PRIORITISE THE MVP FIRST; AND AFTERWARDS PRIORITISE FACTORS RATED HIGH IMPORTANCE DURING OTHER RESEARCH ACTIVITIES (INCL. THE ISSUES FOUND IN THE USER JOURNEY INVESTIGATION) TO ENSURE EFFICIENT TIME USAGE." style="shape=partialRectangle;html=1;whiteSpace=wrap;connectable=0;fillColor=none;top=0;left=0;bottom=0;right=0;overflow=hidden;" vertex="1" parent="2JZlqwN-lR3yLo2RLOQG-43">
          <mxGeometry x="848" width="423" height="112" as="geometry" />
        </mxCell>
        <mxCell id="2JZlqwN-lR3yLo2RLOQG-49" value="&lt;font style=&quot;font-size: 22px&quot;&gt;WHAT COULD BE A CONSTRAINT ON THE PRODUCT?&lt;br&gt;HOW COULD BE A CONSTRAINT ON THE PRODUCT?&lt;br&gt;WHY IS IT A PROBLEM?&lt;br&gt;&lt;/font&gt;" style="text;html=1;align=center;verticalAlign=middle;resizable=0;points=[];autosize=1;" vertex="1" parent="1">
          <mxGeometry x="84" y="-393" width="574" height="55" as="geometry" />
        </mxCell>
      </root>
    </mxGraphModel>
  </diagram>
</mxfile>
